<svg xmlns="http://www.w3.org/2000/svg" xmlns:xlink="http://www.w3.org/1999/xlink" width="298" height="298" viewBox="0 0 298 298"><defs><linearGradient id="a" x1="0.5" x2="0.5" y2="1" gradientUnits="objectBoundingBox"><stop offset="0" stop-color="#f27a28"/><stop offset="1" stop-color="#f9b730"/></linearGradient><filter id="b" x="0" y="0" width="298" height="298" filterUnits="userSpaceOnUse"><feOffset dx="2" dy="3" input="SourceAlpha"/><feGaussianBlur stdDeviation="5" result="c"/><feFlood flood-opacity="0.22"/><feComposite operator="in" in2="c"/><feComposite in="SourceGraphic"/></filter></defs><g transform="translate(-364 -1055.5)"><g transform="matrix(1, 0, 0, 1, 364, 1055.5)" filter="url(#b)"><rect width="268" height="268" rx="134" transform="translate(281 280) rotate(180)" fill="url(#a)"/></g><g transform="translate(432.899 1125.519)"><path d="M264.6,86.291a133.587,133.587,0,0,0-52.869,32.5,136.217,136.217,0,0,0-11.283,12.81,1.715,1.715,0,0,1-1.314.669h-.047a1.731,1.731,0,0,1-1.3-.59c-1.222-1.409-2.5-2.825-3.806-4.205a.158.158,0,0,0-.03-.038l-22.522-25.251a1.724,1.724,0,0,1-.137-2.113,35.18,35.18,0,0,1,4.232-5.123l.189-.188a1.725,1.725,0,0,1,1.205-.489,1.7,1.7,0,0,1,1.163.455L199.219,114.1a146.215,146.215,0,0,1,63.349-36.416,1.867,1.867,0,0,1,.456-.06,1.677,1.677,0,0,1,.871.239,1.731,1.731,0,0,1,.8,1.08c.43,1.78.79,3.612,1.076,5.444A1.721,1.721,0,0,1,264.6,86.291Zm-65.119,18.653a6.376,6.376,0,1,0-6.378-6.375A6.375,6.375,0,0,0,199.484,104.944Zm11.307,22.346a1.724,1.724,0,0,0-2.632-.059c-2.074,2.343-4.091,4.8-5.99,7.289a1.728,1.728,0,0,0,.082,2.194,133.871,133.871,0,0,1,15.594,21.342,1.731,1.731,0,0,0,1.486.851,1.7,1.7,0,0,0,.831-.216,43.918,43.918,0,0,0,6.433-4.332,1.716,1.716,0,0,0,.449-2.13A146.313,146.313,0,0,0,210.791,127.29Zm-20.387.852-.529-.542a1.725,1.725,0,0,0-2.584.12A146.4,146.4,0,0,0,171.183,152.6a1.712,1.712,0,0,0,.473,2.138,44.188,44.188,0,0,0,6.463,4.227,1.706,1.706,0,0,0,.809.2,1.727,1.727,0,0,0,1.491-.856,134.063,134.063,0,0,1,15.718-21.569,1.72,1.72,0,0,0,.03-2.266C194.3,132.3,192.363,130.165,190.4,128.143Z" transform="translate(-137.203 -77.623)" fill="#fff"/><g transform="translate(0 81.545)"><path d="M108.1,307.44l9.444-13.753a1.053,1.053,0,0,0-.867-1.652h-8.513a1.047,1.047,0,0,0-.906.518l-4.474,7.581-4.472-7.581a1.044,1.044,0,0,0-.907-.518H88.9a1.053,1.053,0,0,0-.867,1.652l9.438,13.748L85.778,323.41a1.055,1.055,0,0,0,.853,1.678h8.32a1.065,1.065,0,0,0,.866-.448l6.959-9.9,6.338,9.863a1.056,1.056,0,0,0,.889.487h8.3a1.055,1.055,0,0,0,.869-1.653Z" transform="translate(-85.574 -288.764)" fill="#fff"/><path d="M184.852,308.126h-3.376v-5.574a1.057,1.057,0,0,0-1.059-1.056h-6.324a1.054,1.054,0,0,0-1.05,1.056v5.574h-1.486a1.055,1.055,0,0,0-1.055,1.055v4.947a1.055,1.055,0,0,0,1.055,1.054h1.486V329.75a1.055,1.055,0,0,0,1.05,1.057h6.324a1.058,1.058,0,0,0,1.059-1.057V315.183h3.376a1.052,1.052,0,0,0,1.055-1.054v-4.947a1.053,1.053,0,0,0-1.055-1.055" transform="translate(-136.906 -294.483)" fill="#fff"/><path d="M223.583,316.407a12.751,12.751,0,0,0-9.077,3.3,11.842,11.842,0,0,0-3.442,8.793,11.558,11.558,0,0,0,3.57,8.82,15.213,15.213,0,0,0,16.724,1.335,9.43,9.43,0,0,0,4.008-4.872,1.067,1.067,0,0,0-.134-.963,1.051,1.051,0,0,0-.859-.448h-6.114a1.055,1.055,0,0,0-.869.458,3.608,3.608,0,0,1-3.29,1.566c-2.913,0-4.494-1.485-4.6-4.3h15.425a1.052,1.052,0,0,0,1.053-1.055v-.065c0-7.751-4.748-12.565-12.393-12.565m-3.874,8.564a4.437,4.437,0,0,1,8.313,0Z" transform="translate(-161.423 -303.495)" fill="#fff"/><path d="M294.935,316.407c-3.075,0-5.166.924-6.846,3.065v-1.279a1.052,1.052,0,0,0-1.051-1.054H280.71a1.053,1.053,0,0,0-1.055,1.054v20.57a1.055,1.055,0,0,0,1.055,1.057h6.328a1.055,1.055,0,0,0,1.051-1.057V328.069c0-3.2,1.277-4.82,3.788-4.82a3.074,3.074,0,0,1,2.269.78c1,1.01.979,2.8.961,4.244l-.005.477v10.013a1.058,1.058,0,0,0,1.056,1.057h6.326a1.056,1.056,0,0,0,1.055-1.057v-12.89c0-7.823-4.681-9.466-8.6-9.466" transform="translate(-202.881 -303.495)" fill="#fff"/><path d="M369.783,283.767h-6.324a1.055,1.055,0,0,0-1.055,1.055v14.284a9.508,9.508,0,0,0-6.54-2.427c-6.478,0-11.363,5.18-11.363,12.05,0,6.783,5.031,12.091,11.452,12.091a8.273,8.273,0,0,0,6.451-2.676v.891a1.057,1.057,0,0,0,1.055,1.057h6.324a1.057,1.057,0,0,0,1.056-1.057V284.822a1.055,1.055,0,0,0-1.056-1.055m-11.854,29.652a4.442,4.442,0,0,1-4.735-4.648,4.733,4.733,0,0,1,9.465,0,4.436,4.436,0,0,1-4.73,4.648" transform="translate(-242.075 -283.767)" fill="#fff"/><path d="M440.375,317.139h-6.328a1.054,1.054,0,0,0-1.053,1.054v.641a9.516,9.516,0,0,0-6.544-2.427c-6.477,0-11.36,5.18-11.36,12.051,0,6.782,5.029,12.091,11.447,12.091a8.283,8.283,0,0,0,6.457-2.676v.891a1.057,1.057,0,0,0,1.053,1.057h6.328a1.059,1.059,0,0,0,1.057-1.057v-20.57a1.056,1.056,0,0,0-1.057-1.054m-11.857,16.008a4.44,4.44,0,0,1-4.732-4.648,4.732,4.732,0,0,1,9.463,0,4.439,4.439,0,0,1-4.732,4.648" transform="translate(-284.742 -303.495)" fill="#fff"/></g><g transform="translate(11.413 124.347)"><path d="M116.637,391.967h3.644l5.317,8.57h.037l1.357-8.57h3.644l-2.212,14.018H124.78l-5.317-8.589h-.037l-1.357,8.589h-3.644Z" transform="translate(-114.425 -391.967)" fill="#fff"/><path d="M167.822,407.589c-.52,3.235-3.495,5.075-6.563,5.075-3.049,0-5.447-1.822-4.926-5.075.5-3.254,3.476-5.094,6.544-5.094S168.324,404.335,167.822,407.589Zm-7.919,0a1.7,1.7,0,0,0,1.822,2.138,2.491,2.491,0,0,0,2.529-2.138,1.74,1.74,0,0,0-1.84-2.157A2.5,2.5,0,0,0,159.9,407.589Z" transform="translate(-139.712 -398.33)" fill="#fff"/><path d="M193.671,408.462l3.216-5.168H198.9l1.58,5.168,3.216-5.168h3.737l-6.488,9.537h-2.194l-1.525-5.224-3.2,5.224h-2.193l-3.477-9.537h3.756Z" transform="translate(-159.11 -398.813)" fill="#fff"/><path d="M251.211,403.294h3.9l1.784,4.889,3.253-4.889H264l-9.909,14.3H250.3l4.22-6.06Z" transform="translate(-196.551 -398.813)" fill="#fff"/><path d="M295.237,407.589c-.52,3.235-3.495,5.075-6.562,5.075-3.049,0-5.447-1.822-4.927-5.075.5-3.254,3.476-5.094,6.544-5.094S295.739,404.335,295.237,407.589Zm-7.919,0a1.7,1.7,0,0,0,1.822,2.138,2.49,2.49,0,0,0,2.528-2.138,1.74,1.74,0,0,0-1.84-2.157A2.5,2.5,0,0,0,287.318,407.589Z" transform="translate(-216.725 -398.33)" fill="#fff"/><path d="M321.037,403.294l-.8,5.093c-.186,1.208-.038,2.064,1.357,2.064s1.841-.855,2.026-2.064l.8-5.093H327.8l-.911,5.744c-.483,3.142-2.863,4.109-5.726,4.109s-4.908-.967-4.424-4.109l.911-5.744Z" transform="translate(-236.668 -398.813)" fill="#fff"/><path d="M371.782,405.916a2.548,2.548,0,0,0-1.636-.669,2.783,2.783,0,0,0-2.7,2.324,1.893,1.893,0,0,0,2.008,2.343,2.969,2.969,0,0,0,1.785-.651l-.446,2.863a5.874,5.874,0,0,1-2.473.54,4.179,4.179,0,0,1-4.387-4.982,6.19,6.19,0,0,1,6.154-5.187,4.119,4.119,0,0,1,2.138.558Z" transform="translate(-265.196 -398.33)" fill="#fff"/><path d="M397.686,412.348H394.3l.167-1.06h-.037a3.968,3.968,0,0,1-3.1,1.376c-2.826,0-4.444-2.361-4-5.094a5.9,5.9,0,0,1,5.578-5.075,3.293,3.293,0,0,1,2.751,1.245l.149-.929h3.384Zm-6.86-4.759a1.7,1.7,0,0,0,1.822,2.138,2.49,2.49,0,0,0,2.528-2.138,1.74,1.74,0,0,0-1.841-2.157A2.5,2.5,0,0,0,390.826,407.589Z" transform="translate(-279.332 -398.33)" fill="#fff"/><path d="M424.67,404.038h.037A3.909,3.909,0,0,1,428,402.5c2.566,0,3.328,1.617,2.956,3.959l-.929,5.894h-3.384l.744-4.648c.13-.911.539-2.51-1.134-2.51-1.376,0-1.934,1.023-2.12,2.213l-.781,4.945h-3.383l1.506-9.537h3.383Z" transform="translate(-299.102 -398.33)" fill="#fff"/></g></g></g></svg>