<svg xmlns="http://www.w3.org/2000/svg" xmlns:xlink="http://www.w3.org/1999/xlink" width="161.926" height="161.926" viewBox="0 0 161.926 161.926"><defs><linearGradient id="a" x1="0.5" x2="0.5" y2="1" gradientUnits="objectBoundingBox"><stop offset="0" stop-color="#f27a28"/><stop offset="1" stop-color="#f9b730"/></linearGradient><filter id="b" x="0" y="0" width="161.926" height="161.926" filterUnits="userSpaceOnUse"><feOffset dx="2" dy="3" input="SourceAlpha"/><feGaussianBlur stdDeviation="5" result="c"/><feFlood flood-opacity="0.22"/><feComposite operator="in" in2="c"/><feComposite in="SourceGraphic"/></filter></defs><g transform="translate(-364 -1055.5)"><g transform="matrix(1, 0, 0, 1, 364, 1055.5)" filter="url(#b)"><rect width="131.926" height="131.926" rx="65.963" transform="translate(144.93 143.93) rotate(180)" fill="url(#a)"/></g><g transform="translate(404.517 1096.061)"><path d="M217.073,81.89a65.759,65.759,0,0,0-26.025,16,67.051,67.051,0,0,0-5.554,6.306.844.844,0,0,1-.647.329h-.023a.852.852,0,0,1-.642-.29c-.6-.694-1.233-1.391-1.874-2.07a.078.078,0,0,0-.015-.019l-11.087-12.43a.849.849,0,0,1-.068-1.04,17.318,17.318,0,0,1,2.083-2.522l.093-.092a.849.849,0,0,1,.593-.241.839.839,0,0,1,.572.224l10.406,9.537a71.976,71.976,0,0,1,31.184-17.926.919.919,0,0,1,.225-.03.826.826,0,0,1,.429.118.852.852,0,0,1,.395.531c.211.876.389,1.778.53,2.68A.847.847,0,0,1,217.073,81.89Zm-32.056,9.182a3.139,3.139,0,1,0-3.14-3.138A3.138,3.138,0,0,0,185.018,91.072Zm5.566,11a.849.849,0,0,0-1.3-.029c-1.021,1.154-2.014,2.361-2.949,3.588a.851.851,0,0,0,.04,1.08,65.9,65.9,0,0,1,7.676,10.506.852.852,0,0,0,.731.419.837.837,0,0,0,.409-.106,21.621,21.621,0,0,0,3.167-2.132.845.845,0,0,0,.221-1.048A72.025,72.025,0,0,0,190.584,102.072Zm-10.036.42-.26-.267a.849.849,0,0,0-1.272.059,72.067,72.067,0,0,0-7.93,12.247.843.843,0,0,0,.233,1.052,21.751,21.751,0,0,0,3.182,2.081.84.84,0,0,0,.4.1.85.85,0,0,0,.734-.421,66,66,0,0,1,7.737-10.618.847.847,0,0,0,.015-1.116C182.467,104.537,181.512,103.487,180.548,102.492Z" transform="translate(-154.359 -77.623)" fill="#fff"/><g transform="translate(0 40.142)"><path d="M96.665,299.618l4.649-6.77a.518.518,0,0,0-.427-.813H96.7a.515.515,0,0,0-.446.255l-2.2,3.732-2.2-3.732a.514.514,0,0,0-.446-.255H87.211a.518.518,0,0,0-.427.813l4.646,6.768-5.756,7.864a.52.52,0,0,0,.42.826h4.1a.524.524,0,0,0,.426-.22l3.426-4.874,3.12,4.855a.52.52,0,0,0,.438.24h4.087a.519.519,0,0,0,.428-.814Z" transform="translate(-85.574 -290.425)" fill="#fff"/><path d="M177.566,304.76H175.9v-2.744a.52.52,0,0,0-.521-.52h-3.113a.519.519,0,0,0-.517.52v2.744h-.731a.519.519,0,0,0-.519.519v2.435a.519.519,0,0,0,.519.519h.731V315.4a.519.519,0,0,0,.517.52h3.113a.521.521,0,0,0,.521-.52v-7.171h1.662a.518.518,0,0,0,.519-.519v-2.435a.518.518,0,0,0-.519-.519" transform="translate(-153.964 -298.044)" fill="#fff"/><path d="M217.227,316.407a6.277,6.277,0,0,0-4.468,1.624,5.829,5.829,0,0,0-1.694,4.328,5.689,5.689,0,0,0,1.757,4.342,7.489,7.489,0,0,0,8.232.657,4.642,4.642,0,0,0,1.973-2.4.525.525,0,0,0-.066-.474.517.517,0,0,0-.423-.22h-3.01a.52.52,0,0,0-.428.225,1.776,1.776,0,0,1-1.62.771,2.006,2.006,0,0,1-2.265-2.119h7.593a.518.518,0,0,0,.518-.519v-.032c0-3.816-2.337-6.185-6.1-6.185m-1.907,4.216a2.184,2.184,0,0,1,4.092,0Z" transform="translate(-186.628 -310.051)" fill="#fff"/><path d="M287.177,316.407a3.885,3.885,0,0,0-3.37,1.509v-.63a.518.518,0,0,0-.517-.519h-3.115a.518.518,0,0,0-.519.519v10.126a.519.519,0,0,0,.519.52h3.115a.519.519,0,0,0,.517-.52v-5.264c0-1.576.629-2.373,1.865-2.373a1.513,1.513,0,0,1,1.117.384,2.961,2.961,0,0,1,.473,2.089l0,.235v4.929a.521.521,0,0,0,.52.52h3.114a.52.52,0,0,0,.519-.52v-6.345c0-3.851-2.3-4.66-4.235-4.66" transform="translate(-241.862 -310.051)" fill="#fff"/><path d="M356.946,283.767h-3.113a.519.519,0,0,0-.519.519v7.031a4.68,4.68,0,0,0-3.22-1.195,5.643,5.643,0,0,0-5.594,5.932,5.739,5.739,0,0,0,5.637,5.952,4.073,4.073,0,0,0,3.176-1.317v.438a.52.52,0,0,0,.519.52h3.113a.52.52,0,0,0,.52-.52V284.286a.519.519,0,0,0-.52-.519m-5.835,14.6a2.187,2.187,0,0,1-2.331-2.288,2.33,2.33,0,0,1,4.659,0,2.184,2.184,0,0,1-2.328,2.288" transform="translate(-294.08 -283.767)" fill="#fff"/><path d="M427.537,316.767h-3.115a.519.519,0,0,0-.518.519v.315a4.684,4.684,0,0,0-3.221-1.195,5.642,5.642,0,0,0-5.592,5.932,5.738,5.738,0,0,0,5.635,5.952,4.077,4.077,0,0,0,3.178-1.317v.439a.52.52,0,0,0,.518.52h3.115a.521.521,0,0,0,.52-.52V317.286a.52.52,0,0,0-.52-.519m-5.837,7.88a2.185,2.185,0,0,1-2.329-2.288,2.329,2.329,0,0,1,4.658,0,2.185,2.185,0,0,1-2.329,2.288" transform="translate(-350.925 -310.051)" fill="#fff"/></g><g transform="translate(5.618 61.211)"><path d="M115.514,391.967h1.794l2.617,4.219h.018l.668-4.219h1.794l-1.089,6.9h-1.793l-2.618-4.228h-.018l-.668,4.228h-1.794Z" transform="translate(-114.425 -391.967)" fill="#fff"/><path d="M161.952,405a3.123,3.123,0,0,1-3.23,2.5c-1.5,0-2.681-.9-2.425-2.5a3.106,3.106,0,0,1,3.221-2.507C161.028,402.5,162.2,403.4,161.952,405Zm-3.9,0a.835.835,0,0,0,.9,1.052A1.226,1.226,0,0,0,160.2,405a.856.856,0,0,0-.906-1.062A1.233,1.233,0,0,0,158.054,405Z" transform="translate(-148.115 -400.445)" fill="#fff"/><path d="M190.972,405.838l1.583-2.544h.988l.778,2.544,1.583-2.544h1.84l-3.194,4.695h-1.08l-.75-2.572-1.574,2.572h-1.08l-1.712-4.695H190.2Z" transform="translate(-173.958 -401.088)" fill="#fff"/><path d="M250.748,403.294h1.922l.878,2.407,1.6-2.407h1.895l-4.878,7.037H250.3l2.078-2.983Z" transform="translate(-223.842 -401.088)" fill="#fff"/><path d="M289.367,405a3.123,3.123,0,0,1-3.23,2.5c-1.5,0-2.682-.9-2.425-2.5a3.106,3.106,0,0,1,3.221-2.507C288.443,402.5,289.615,403.4,289.367,405Zm-3.9,0a.835.835,0,0,0,.9,1.052A1.226,1.226,0,0,0,287.61,405a.856.856,0,0,0-.906-1.062A1.233,1.233,0,0,0,285.469,405Z" transform="translate(-250.719 -400.445)" fill="#fff"/><path d="M318.821,403.294l-.393,2.507c-.092.595-.019,1.016.668,1.016s.906-.421,1-1.016l.394-2.507h1.666l-.448,2.828c-.238,1.547-1.409,2.023-2.819,2.023s-2.416-.476-2.178-2.023l.448-2.828Z" transform="translate(-277.289 -401.088)" fill="#fff"/><path d="M367.765,404.179a1.255,1.255,0,0,0-.805-.329,1.37,1.37,0,0,0-1.327,1.144.932.932,0,0,0,.988,1.153,1.461,1.461,0,0,0,.879-.32l-.22,1.409a2.891,2.891,0,0,1-1.217.266,2.057,2.057,0,0,1-2.16-2.453,3.047,3.047,0,0,1,3.029-2.553,2.028,2.028,0,0,1,1.052.274Z" transform="translate(-315.297 -400.445)" fill="#fff"/><path d="M392.391,407.345h-1.666l.082-.522h-.018a1.953,1.953,0,0,1-1.528.677,2.007,2.007,0,0,1-1.968-2.508,2.9,2.9,0,0,1,2.746-2.5,1.621,1.621,0,0,1,1.354.613l.073-.457h1.666ZM389.014,405a.835.835,0,0,0,.9,1.052A1.226,1.226,0,0,0,391.155,405a.856.856,0,0,0-.906-1.062A1.232,1.232,0,0,0,389.014,405Z" transform="translate(-334.13 -400.445)" fill="#fff"/><path d="M422.282,403.255h.018a1.924,1.924,0,0,1,1.62-.759c1.263,0,1.638.8,1.455,1.949l-.457,2.9h-1.666l.366-2.288c.064-.448.265-1.236-.558-1.236-.677,0-.952.5-1.043,1.089l-.384,2.434h-1.665l.741-4.695h1.665Z" transform="translate(-360.47 -400.445)" fill="#fff"/></g></g></g></svg>