<svg xmlns="http://www.w3.org/2000/svg" width="32.809" height="28.222" viewBox="0 0 32.809 28.222"><path d="M203.39,80.623a46.233,46.233,0,0,0-18.3,11.247,47.147,47.147,0,0,0-3.9,4.433.593.593,0,0,1-.455.231h-.016a.6.6,0,0,1-.451-.2c-.423-.488-.867-.978-1.317-1.455,0,0-.007-.009-.01-.013l-7.794-8.739a.6.6,0,0,1-.048-.731,12.174,12.174,0,0,1,1.465-1.773l.065-.065a.6.6,0,0,1,.417-.169.589.589,0,0,1,.4.157l7.316,6.705a50.6,50.6,0,0,1,21.924-12.6.646.646,0,0,1,.158-.021.58.58,0,0,1,.3.083.6.6,0,0,1,.278.374c.149.616.274,1.25.372,1.884A.6.6,0,0,1,203.39,80.623Zm-22.537,6.455a2.207,2.207,0,1,0-2.207-2.206A2.206,2.206,0,0,0,180.853,87.078Zm3.913,7.734a.6.6,0,0,0-.911-.02c-.718.811-1.416,1.66-2.073,2.523a.6.6,0,0,0,.028.759,46.333,46.333,0,0,1,5.4,7.386.6.6,0,0,0,.514.294.588.588,0,0,0,.288-.075,15.2,15.2,0,0,0,2.226-1.5.594.594,0,0,0,.156-.737A50.636,50.636,0,0,0,184.766,94.812Zm-7.056.3-.183-.188a.6.6,0,0,0-.894.042,50.667,50.667,0,0,0-5.575,8.61.593.593,0,0,0,.164.74,15.3,15.3,0,0,0,2.237,1.463.59.59,0,0,0,.28.071.6.6,0,0,0,.516-.3,46.4,46.4,0,0,1,5.44-7.465.6.6,0,0,0,.01-.784C179.059,96.545,178.388,95.807,177.71,95.107Z" transform="translate(-170.993 -77.623)" fill="#fff"/></svg>